#!OML:ASF Y:\EmotionMaleHayes\Project 1\Capture day 1\Session 1\Male1.ASF
:FULLY-SPECIFIED
:DEGREES
145
root 9.56926 17.0375 0.722203 9.0042 63.0091 13.0449
lowerback 5.98949 2.38577 -10.5504
upperback 5.20898 2.9188 -1.9931
thorax 1.70317 1.26402 3.68194
lowerneck -19.573 -7.31679 -3.58313
upperneck 17.5187 -10.6901 7.71735
head 9.37879 -4.35884 1.73849
rclavicle 2.73329e-014 -9.93923e-015
rhumerus -46.1079 37.608 -109.114
rradius 98.0949
rwrist -5.32537
rhand -31.3017 -30.0053
rfingers 7.12502
rthumb -4.57446 -59.9359
lclavicle 2.73329e-014 -9.93923e-015
lhumerus -44.7077 -45.6772 110.214
lradius 95.8986
lwrist 28.839
lhand -28.5637 -25.3968
lfingers 7.12502
lthumb -1.93035 4.57423
rfemur -7.68237 9.42508 4.92437
rtibia 21.1847
rfoot -14.1071 7.46551
rtoes -0.725761
lfemur 7.4023 7.3664 -22.3754
ltibia 11.8931
lfoot -17.9444 14.2904
ltoes -7.11908
146
root 9.56429 17.0321 0.748089 9.17086 63.0236 13.1193
lowerback 5.77222 2.3983 -10.6069
upperback 5.18058 2.96051 -2.0522
thorax 1.78956 1.28074 3.65733
lowerneck -19.4118 -7.30437 -3.58888
upperneck 17.4306 -10.6758 7.76143
head 9.32174 -4.35527 1.76178
rclavicle 3.08116e-015 1.82882e-014
rhumerus -46.1914 37.4966 -109.222
rradius 98.1333
rwrist -4.91568
rhand -31.5227 -29.9968
rfingers 7.12502
rthumb -4.7879 -59.9227
lclavicle 3.08116e-015 1.82882e-014
lhumerus -44.922 -45.7906 110.222
lradius 96.0707
lwrist 29.2661
lhand -28.1853 -24.9466
lfingers 7.12502
lthumb -1.56486 5.02738
rfemur -7.70376 9.44246 4.96944
rtibia 21.0844
rfoot -14.485 7.08142
rtoes -2.19307
lfemur 7.31709 7.39667 -22.2851
ltibia 11.885
lfoot -17.7855 14.2473
ltoes -7.11731
147
root 9.56553 17.034 0.770529 9.53824 62.9522 13.6
lowerback 5.77474 2.44565 -10.7908
upperback 5.15102 3.01689 -2.15772
thorax 1.74897 1.30934 3.64432
lowerneck -19.2962 -7.30031 -3.67689
upperneck 17.3985 -10.656 7.81483
head 9.29706 -4.35052 1.80029
rclavicle 1.16289e-014 -7.95139e-015
rhumerus -46.3131 37.3883 -109.377
rradius 98.1029
rwrist -4.38157
rhand -31.6152 -30.3023
rfingers 7.12502
rthumb -4.87713 -60.2262
lclavicle 1.16289e-014 -7.95139e-015
lhumerus -44.9087 -45.6083 109.958
lradius 96.111
lwrist 28.2945
lhand -27.0326 -23.4479
lfingers 7.12502
lthumb -0.4516 6.53133
rfemur -7.49121 9.32075 4.74199
rtibia 20.8647
rfoot -14.8435 6.83707
rtoes -4.4788
lfemur 7.47769 7.225 -22.5396
ltibia 11.7524
lfoot -17.8026 14.4573
ltoes -7.13174
148
root 9.55853 17.0422 0.793244 9.37966 62.9431 13.6305
lowerback 5.9782 2.48344 -10.7847
upperback 5.18247 3.04514 -2.19907
thorax 1.66762 1.32862 3.58814
lowerneck -19.5096 -7.30864 -3.67242
upperneck 17.5944 -10.6569 7.69996
head 9.39543 -4.35093 1.75305
rclavicle 5.76476e-014 3.53837e-014
rhumerus -46.3777 37.3142 -109.453
rradius 98.1387
rwrist -3.66409
rhand -31.6657 -30.1938
rfingers 7.12502
rthumb -4.92599 -60.1165
lclavicle 5.76476e-014 3.53837e-014
lhumerus -45.4109 -45.8539 110.267
lradius 96.2953
lwrist 29.6133
lhand -27.4091 -24.2607
lfingers 7.12502
lthumb -0.815221 5.71753
rfemur -7.18041 9.28605 4.84935
rtibia 20.6846
rfoot -15.0557 6.47545
rtoes -6.49005
lfemur 7.69744 7.00654 -22.4965
ltibia 11.7314
lfoot -17.8812 14.6849
ltoes -7.35174
149
root 9.55865 17.0519 0.816225 8.69176 62.8853 13.1743
lowerback 6.11269 2.52842 -10.5442
upperback 5.3141 3.11024 -2.17507
thorax 1.72993 1.36182 3.47428
lowerneck -19.6746 -7.27682 -3.61258
upperneck 17.6321 -10.6061 7.58921
head 9.42424 -4.33029 1.70853
rclavicle -6.39093e-014 1.23246e-014
rhumerus -46.3988 37.3403 -109.427
rradius 98.27
rwrist -3.18178
rhand -31.8989 -29.5371
rfingers 7.12502
rthumb -5.15115 -59.4545
lclavicle -6.39093e-014 1.23246e-014
lhumerus -45.0336 -45.5886 109.706
lradius 96.3811
lwrist 28.1564
lhand -26.4235 -22.6768
lfingers 7.12502
lthumb 0.136679 7.30291
rfemur -6.75636 9.29064 5.21907
rtibia 20.5344
rfoot -15.1445 6.26922
rtoes -8.03954
lfemur 8.10933 6.82264 -22.1997
ltibia 11.5993
lfoot -17.8797 14.9726
ltoes -7.55735
150
root 9.56386 17.0443 0.839374 8.65769 62.7661 12.9999
lowerback 5.82814 2.58321 -10.366
upperback 5.27023 3.22238 -2.21311
thorax 1.83454 1.41859 3.34162
lowerneck -19.4684 -7.19445 -3.53484
upperneck 17.4677 -10.486 7.51083
head 9.31345 -4.28988 1.69469
rclavicle -4.07509e-015 1.43125e-014
rhumerus -46.527 37.262 -109.436
rradius 98.3346
rwrist -2.86216
rhand -32.034 -29.2054
rfingers 7.12502
rthumb -5.28154 -59.1196
lclavicle -4.07509e-015 1.43125e-014
lhumerus -45.1722 -45.7109 109.729
lradius 96.4506
lwrist 28.3312
lhand -26.3709 -22.6416
lfingers 7.12502
lthumb 0.187538 7.33808
rfemur -6.80725 9.09306 5.30604
rtibia 20.4902
rfoot -15.1673 6.2774
rtoes -8.96086
lfemur 8.09789 6.84819 -22.093
ltibia 11.4661
lfoot -17.7384 15.1324
ltoes -7.9445
151
root 9.55095 17.0386 0.867208 8.99494 62.8184 13.241
lowerback 5.84912 2.62784 -10.4798
upperback 5.11891 3.25966 -2.2659
thorax 1.65641 1.44656 3.34214
lowerneck -19.3095 -7.13012 -3.33833
upperneck 17.4573 -10.4016 7.27468
head 9.25055 -4.26894 1.60094
rclavicle 3.23025e-014 -3.65764e-014
rhumerus -46.7204 37.1253 -109.523
rradius 98.3467
rwrist -2.45558
rhand -32.0895 -29.5829
rfingers 7.12502
rthumb -5.33517 -59.4957
lclavicle 3.23025e-014 -3.65764e-014
lhumerus -45.9439 -46.0498 110.337
lradius 96.5899
lwrist 29.8758
lhand -27.2986 -24.0697
lfingers 7.12502
lthumb -0.708471 5.90883
rfemur -6.82894 8.90921 5.30077
rtibia 20.4834
rfoot -15.2277 6.18173
rtoes -8.84283
lfemur 7.92082 7.08826 -22.0258
ltibia 11.5734
lfoot -17.4888 14.924
ltoes -8.59665
152
root 9.56655 17.0477 0.891273 8.88871 62.479 13.4118
lowerback 5.82521 2.73212 -10.5414
upperback 5.19528 3.40873 -2.31134
thorax 1.73134 1.51549 3.32258
lowerneck -19.4026 -7.05819 -3.07413
upperneck 17.5369 -10.293 6.86965
head 9.24841 -4.24187 1.43491
rclavicle -4.57205e-014 -4.37326e-015
rhumerus -46.8508 37.311 -109.607
rradius 98.3787
rwrist -2.1451
rhand -32.3804 -29.8215
rfingers 7.12502
rthumb -5.616 -59.7271
lclavicle -4.57205e-014 -4.37326e-015
lhumerus -45.834 -45.5417 109.993
lradius 96.6403
lwrist 28.3715
lhand -26.6858 -23.0596
lfingers 7.12502
lthumb -0.116644 6.92007
rfemur -6.44441 8.94265 5.17365
rtibia 20.2739
rfoot -15.2037 6.39411
rtoes -8.88501
lfemur 8.47889 6.89579 -22.2268
ltibia 11.1922
lfoot -17.6556 15.3503
ltoes -8.34943
153
root 9.5575 17.0444 0.933392 8.17458 62.4517 12.871
lowerback 5.97357 2.76405 -10.5348
upperback 5.27146 3.43594 -2.17977
thorax 1.71812 1.52543 3.44901
lowerneck -19.5641 -6.98588 -2.91122
upperneck 17.6131 -10.1733 6.55066
head 9.26834 -4.20543 1.3135
rclavicle -4.50247e-014 1.03368e-014
rhumerus -46.9155 37.5731 -109.648
rradius 98.3824
rwrist -1.76654
rhand -32.7155 -29.4982
rfingers 7.12502
rthumb -5.93953 -59.3949
lclavicle -4.50247e-014 1.03368e-014
lhumerus -45.7914 -45.126 109.783
lradius 96.7271
lwrist 27.653
lhand -26.5182 -22.9133
lfingers 7.12502
lthumb 0.0452191 7.06647
rfemur -6.03645 9.2034 5.74019
rtibia 20.0404
rfoot -15.1042 6.03016
rtoes -9.71094
lfemur 8.83525 7.04135 -21.6063
ltibia 11.1272
lfoot -17.6923 15.2079
ltoes -8.75754
154
root 9.54333 17.0362 0.982518 6.79477 62.5629 11.5066
lowerback 6.11877 2.83335 -10.1103
upperback 5.30888 3.52262 -1.96836
thorax 1.66864 1.57662 3.42419
lowerneck -19.6957 -6.97312 -2.92362
upperneck 17.6656 -10.1523 6.53979
head 9.30892 -4.19266 1.31055
rclavicle 4.06515e-014 -1.19271e-015
rhumerus -46.9471 37.5497 -109.612
rradius 98.4317
rwrist -1.35703
rhand -32.9307 -29.2149
rfingers 7.12502
rthumb -6.14732 -59.1057
lclavicle 4.06515e-014 -1.19271e-015
lhumerus -45.9301 -45.1854 109.815
lradius 96.7882
lwrist 27.5985
lhand -26.5727 -23.2663
lfingers 7.12502
lthumb -0.00736831 6.71349
rfemur -5.76114 9.75011 6.85732
rtibia 19.9672
rfoot -14.973 5.30399
rtoes -10.381
lfemur 9.03592 7.00947 -20.4478
ltibia 11.1754
lfoot -17.6499 15.1646
ltoes -9.10316
